HIERARCHY
ROOT Hips
{
	OFFSET -0.001795 -0.223333 0.028219
	CHANNELS 6 Xposition Yposition Zposition Zrotation Yrotation Xrotation 
	JOINT LeftUpLeg
	{
		OFFSET 0.069520 -0.091406 -0.006815
		CHANNELS 3 Zrotation Yrotation Xrotation
		JOINT LeftLeg
		{
			OFFSET 0.034277 -0.375199 -0.004496
			CHANNELS 3 Zrotation Yrotation Xrotation
			JOINT LeftFoot
			{
				OFFSET -0.013596 -0.397961 -0.043693
				CHANNELS 3 Zrotation Yrotation Xrotation
				JOINT LeftToe
				{
					OFFSET 0.026358 -0.055791 0.119288
					CHANNELS 3 Zrotation Yrotation Xrotation
					End Site
					{
						OFFSET 0.000000 0.000000 0.000000
					}
				}
			}
		}
	}
	JOINT RightUpLeg
	{
		OFFSET -0.067670 -0.090522 -0.004320
		CHANNELS 3 Zrotation Yrotation Xrotation
		JOINT RightLeg
		{
			OFFSET -0.038290 -0.382569 -0.008850
			CHANNELS 3 Zrotation Yrotation Xrotation
			JOINT RightFoot
			{
				OFFSET 0.015774 -0.398415 -0.042312
				CHANNELS 3 Zrotation Yrotation Xrotation
				JOINT RightToe
				{
					OFFSET -0.025372 -0.048144 0.123348
					CHANNELS 3 Zrotation Yrotation Xrotation
					End Site
					{
						OFFSET 0.000000 0.000000 0.000000
					}
				}
			}
		}
	}
	JOINT Spine
	{
		OFFSET -0.002533 0.108963 -0.026696
		CHANNELS 3 Zrotation Yrotation Xrotation
		JOINT Spine1
		{
			OFFSET 0.005487 0.135180 0.001092
			CHANNELS 3 Zrotation Yrotation Xrotation
			JOINT Spine2
			{
				OFFSET 0.001457 0.052922 0.025425
				CHANNELS 3 Zrotation Yrotation Xrotation
				JOINT Neck
				{
					OFFSET -0.002778 0.213870 -0.042857
					CHANNELS 3 Zrotation Yrotation Xrotation
					JOINT Head
					{
						OFFSET 0.005152 0.064970 0.051349
						CHANNELS 3 Zrotation Yrotation Xrotation
						End Site
						{
							OFFSET 0.000000 0.000000 0.000000
						}
					}
				}
				JOINT LeftShoulder
				{
					OFFSET 0.078845 0.121749 -0.034090
					CHANNELS 3 Zrotation Yrotation Xrotation
					JOINT LeftArm
					{
						OFFSET 0.090977 0.030469 -0.008868
						CHANNELS 3 Zrotation Yrotation Xrotation
						JOINT LeftForeArm
						{
							OFFSET 0.259612 -0.012772 -0.027456
							CHANNELS 3 Zrotation Yrotation Xrotation
							JOINT LeftHand
							{
								OFFSET 0.249234 0.008986 -0.001171
								CHANNELS 3 Zrotation Yrotation Xrotation
								End Site
								{
									OFFSET 0.000000 0.000000 0.000000
								}
							}
						}
					}
				}
				JOINT RightShoulder
				{
					OFFSET -0.081759 0.118833 -0.038615
					CHANNELS 3 Zrotation Yrotation Xrotation
					JOINT RightArm
					{
						OFFSET -0.096012 0.032551 -0.009143
						CHANNELS 3 Zrotation Yrotation Xrotation
						JOINT RightForeArm
						{
							OFFSET -0.253742 -0.013329 -0.021401
							CHANNELS 3 Zrotation Yrotation Xrotation
							JOINT RightHand
							{
								OFFSET -0.255298 0.007772 -0.005559
								CHANNELS 3 Zrotation Yrotation Xrotation
								End Site
								{
									OFFSET 0.000000 0.000000 0.000000
								}
							}
						}
					}
				}
			}
		}
	}
}
MOTION
Frames: 16
Frame Time: 0.050000
0.000000 0.938996 0.000000 0.749766 0.242661 5.962732 5.867734 -0.302966 -3.624778 2.069437 -0.260047 0.735758 9.112642 19.268417 21.627734 0.000000 0.000000 0.000000 -5.742075 0.464831 -5.038587 -4.685003 0.166069 -3.974043 6.992841 10.585993 9.394344 0.000000 0.000000 0.000000 5.739966 0.253274 -4.606344 -2.652835 1.247664 -2.218029 -4.977857 3.832717 3.671997 5.432770 -2.551538 -10.040221 0.000000 0.000000 0.000000 -19.094208 -4.869058 -0.559709 -53.085860 -5.051192 -3.743552 -5.212855 -15.816986 1.182689 0.000000 0.000000 0.000000 16.740157 -3.170798 -2.185175 62.373456 6.194800 -2.539345 4.071953 19.537220 1.432162 0.000000 0.000000 0.000000 
0.000207 0.938125 0.000054 0.859970 0.141603 6.612459 5.693058 -0.289511 -3.097468 2.142077 -0.155627 -1.389868 9.150418 19.302168 21.707164 0.000000 0.000000 0.000000 -5.722883 0.517879 -5.903339 -5.013206 0.208044 -3.715958 6.890484 10.591868 9.065458 0.000000 0.000000 0.000000 7.049930 0.333462 -5.376873 -3.529228 1.629976 -2.805424 -6.351202 4.240820 4.055718 5.384305 -2.283218 -11.219058 0.000000 0.000000 0.000000 -19.860229 -4.694031 -0.894644 -51.848492 -5.374109 -3.472103 -5.260498 -15.599712 1.161958 0.000000 0.000000 0.000000 17.022342 -4.445933 -2.757802 63.212513 6.126854 -2.583625 4.678420 18.365578 1.437772 0.000000 0.000000 0.000000 
0.000209 0.938212 -0.000066 1.264954 0.516505 6.473533 5.094980 -0.306580 -3.444780 2.490142 -0.226801 -0.680178 8.921777 19.058082 21.603864 0.000000 0.000000 0.000000 -6.171921 0.505009 -5.938282 -4.965028 0.250568 -3.203587 6.627796 10.302657 8.726226 0.000000 0.000000 0.000000 6.645365 0.314641 -5.258247 -3.233178 1.497644 -3.574539 -6.866056 3.452023 4.599269 4.793117 -2.078396 -10.322133 0.000000 0.000000 0.000000 -19.578207 -4.885198 -0.595262 -52.017981 -5.326031 -3.606600 -4.476629 -15.038072 1.037548 0.000000 0.000000 0.000000 17.758444 -3.250017 -2.258776 62.108184 5.775625 -2.886650 5.364382 19.021601 1.586113 0.000000 0.000000 0.000000 
0.000110 0.938228 -0.000085 1.592246 0.886167 6.733452 5.152463 -0.324696 -3.688725 1.856771 -0.150596 -0.900554 8.682519 18.794814 21.536253 0.000000 0.000000 0.000000 -6.476344 0.528805 -6.645052 -5.021935 0.337496 -2.246007 6.311428 9.962328 8.288967 0.000000 0.000000 0.000000 6.844185 0.343105 -5.608948 -3.789807 1.746568 -2.927133 -6.952064 2.647614 3.713889 4.214953 -1.867798 -9.296348 0.000000 0.000000 0.000000 -19.919793 -4.532122 -0.711804 -51.979496 -5.873470 -3.295538 -3.575506 -15.092035 0.931148 0.000000 0.000000 0.000000 16.914546 -3.144747 -2.286580 62.321769 5.553482 -2.879950 6.318876 19.689251 1.773095 0.000000 0.000000 0.000000 
-0.000129 0.938953 -0.000188 1.833575 1.582699 6.643542 4.847881 -0.336076 -3.815730 2.101026 -0.178401 -0.779573 8.226171 18.299687 21.532568 0.000000 0.000000 0.000000 -6.549842 0.512951 -6.633154 -5.237230 0.403063 -1.762031 5.981359 9.389988 8.182248 0.000000 0.000000 0.000000 6.420058 0.334723 -5.636691 -3.299350 1.536484 -2.921675 -7.497137 2.404937 3.782955 3.956777 -1.685281 -9.206572 0.000000 0.000000 0.000000 -19.644888 -4.770638 -0.623889 -51.933274 -6.393191 -3.064168 -4.145161 -15.107538 0.999834 0.000000 0.000000 0.000000 16.842684 -3.500609 -2.412544 62.154801 5.375548 -2.961670 7.213859 20.122394 1.975151 0.000000 0.000000 0.000000 
-0.000366 0.939401 -0.000215 1.952459 1.545469 6.877096 4.789885 -0.352670 -4.104894 1.987957 -0.170418 -0.719090 8.214679 18.291726 21.729376 0.000000 0.000000 0.000000 -6.533622 0.530419 -6.952091 -5.482660 0.433308 -1.658144 5.995161 9.358660 8.274520 0.000000 0.000000 0.000000 6.425750 0.366184 -6.016525 -3.451058 1.601265 -3.018094 -7.537536 2.289243 3.978109 4.083800 -1.820958 -8.960193 0.000000 0.000000 0.000000 -20.178784 -4.669297 -0.697574 -51.304843 -6.677164 -2.906822 -4.018107 -15.365063 1.004258 0.000000 0.000000 0.000000 16.425417 -3.419429 -2.363875 62.421141 5.450217 -2.930448 7.501516 20.281276 2.035974 0.000000 0.000000 0.000000 
-0.000553 0.939714 -0.000241 2.048957 1.650936 6.910940 4.750566 -0.356287 -4.149330 1.912322 -0.160932 -0.751760 8.122893 18.192446 21.810590 0.000000 0.000000 0.000000 -6.487986 0.530115 -6.949979 -5.718142 0.453777 -1.674563 5.955786 9.251131 8.325647 0.000000 0.000000 0.000000 6.193233 0.364448 -6.066713 -3.405950 1.582033 -3.067519 -7.727483 2.121956 4.000166 4.259269 -1.898105 -9.284917 0.000000 0.000000 0.000000 -20.105218 -4.570703 -0.723324 -51.264726 -6.576572 -2.953042 -4.536011 -15.967433 1.114509 0.000000 0.000000 0.000000 16.558066 -3.423478 -2.389183 62.482714 5.348755 -2.993052 7.808113 20.841699 2.152989 0.000000 0.000000 0.000000 
-0.000631 0.939895 -0.000254 2.185422 1.630696 7.081338 4.559477 -0.374319 -4.452714 1.986721 -0.179017 -0.542803 8.123781 18.199072 21.911276 0.000000 0.000000 0.000000 -6.462437 0.541601 -7.142896 -6.034804 0.483032 -1.659175 5.948977 9.221006 8.348737 0.000000 0.000000 0.000000 6.143219 0.375674 -6.239233 -3.457943 1.603442 -3.113051 -7.899943 2.028507 4.070881 4.205780 -1.874312 -9.237781 0.000000 0.000000 0.000000 -20.267318 -4.533547 -0.739171 -50.860838 -6.696078 -2.880964 -4.916591 -16.432123 1.202315 0.000000 0.000000 0.000000 16.439747 -3.407546 -2.384571 62.750911 5.457665 -2.944494 7.970253 21.043847 2.203910 0.000000 0.000000 0.000000 
-0.000725 0.939857 -0.000274 2.356078 1.440237 7.001855 4.365979 -0.370593 -4.401635 1.961706 -0.183871 -0.414799 8.211138 18.290421 21.989316 0.000000 0.000000 0.000000 -6.571724 0.536640 -7.050982 -6.193340 0.487381 -1.746260 6.018043 9.372120 8.310589 0.000000 0.000000 0.000000 6.121348 0.365095 -6.096982 -3.515812 1.626906 -3.283837 -8.028876 2.201629 4.183892 4.190248 -1.846459 -9.326430 0.000000 0.000000 0.000000 -20.223008 -4.642592 -0.692962 -50.776238 -6.807297 -2.839134 -5.207938 -16.397090 1.240080 0.000000 0.000000 0.000000 16.575334 -3.321708 -2.328687 62.743733 5.659868 -2.855914 8.018614 21.243335 2.241714 0.000000 0.000000 0.000000 
-0.000828 0.939819 -0.000258 2.525731 1.310695 6.933806 4.211465 -0.374188 -4.475922 1.884788 -0.192235 -0.106390 8.275402 18.357457 22.025250 0.000000 0.000000 0.000000 -6.737846 0.532234 -7.028177 -6.237613 0.494788 -1.699766 6.049504 9.476787 8.232381 0.000000 0.000000 0.000000 6.231549 0.360234 -5.994560 -3.723511 1.715854 -3.345699 -8.101956 2.262323 4.252840 3.992181 -1.688384 -9.483666 0.000000 0.000000 0.000000 -20.361292 -4.889726 -0.571466 -50.484417 -6.954166 -2.762096 -5.491636 -16.358445 1.278335 0.000000 0.000000 0.000000 16.728082 -3.070430 -2.204875 62.682366 5.990530 -2.696863 8.037913 21.345351 2.258426 0.000000 0.000000 0.000000 
-0.000948 0.939790 -0.000234 2.651086 1.020044 6.878881 4.103420 -0.369688 -4.424815 1.777933 -0.187802 0.007278 8.422706 18.513635 22.143323 0.000000 0.000000 0.000000 -6.877295 0.534664 -7.081630 -6.260359 0.501594 -1.627239 6.156789 9.708926 8.187825 0.000000 0.000000 0.000000 6.333072 0.358950 -5.915882 -3.719668 1.712745 -3.323756 -8.208087 2.364295 4.134602 3.922372 -1.629912 -9.553609 0.000000 0.000000 0.000000 -20.577117 -5.084099 -0.489425 -50.305195 -6.833229 -2.782165 -5.681473 -16.241713 1.295693 0.000000 0.000000 0.000000 16.699569 -2.828402 -2.081924 62.758056 6.344087 -2.497603 8.007297 21.390352 2.256354 0.000000 0.000000 0.000000 
-0.001041 0.939598 -0.000195 2.811327 0.955859 6.946192 4.083381 -0.373670 -4.487214 1.503458 -0.159191 0.012644 8.452909 18.544026 22.143711 0.000000 0.000000 0.000000 -7.007624 0.532143 -7.044063 -6.352140 0.488839 -1.839068 6.164867 9.745666 8.150494 0.000000 0.000000 0.000000 6.345410 0.356821 -5.901638 -3.715629 1.710838 -3.259908 -8.358538 2.325456 3.817062 3.601674 -1.398216 -9.628520 0.000000 0.000000 0.000000 -20.667110 -5.109603 -0.493745 -50.163372 -6.841384 -2.733549 -5.578106 -15.801574 1.245556 0.000000 0.000000 0.000000 16.553925 -2.683072 -2.007591 62.876087 6.309305 -2.477792 8.248925 21.536607 2.311508 0.000000 0.000000 0.000000 
-0.001091 0.939495 -0.000147 2.930448 0.927983 7.008299 3.957927 -0.378217 -4.540903 1.494862 -0.157805 0.001901 8.462134 18.553966 22.162945 0.000000 0.000000 0.000000 -7.019489 0.538997 -7.198564 -6.570927 0.523197 -1.679591 6.131960 9.751396 8.032007 0.000000 0.000000 0.000000 6.340679 0.361033 -5.959639 -3.676790 1.694251 -3.175073 -8.424962 2.204623 3.490042 3.395791 -1.262531 -9.627607 0.000000 0.000000 0.000000 -20.825152 -5.123931 -0.487772 -49.883520 -6.708895 -2.738672 -5.701830 -15.330093 1.225866 0.000000 0.000000 0.000000 16.579961 -2.541747 -1.964548 62.710712 6.277550 -2.462187 8.402799 21.649774 2.344102 0.000000 0.000000 0.000000 
-0.001131 0.939373 -0.000148 3.060598 1.114101 6.976209 3.940734 -0.383400 -4.613092 1.322672 -0.145212 0.131391 8.357376 18.441114 22.061512 0.000000 0.000000 0.000000 -7.104892 0.531295 -7.164620 -6.649258 0.542584 -1.570878 6.012684 9.605698 7.888277 0.000000 0.000000 0.000000 6.295304 0.351837 -5.883001 -3.575015 1.650590 -3.277719 -8.668256 2.123462 3.438287 3.115383 -1.088879 -9.459070 0.000000 0.000000 0.000000 -20.860585 -5.288830 -0.427769 -49.642256 -6.663442 -2.725730 -5.876351 -15.018078 1.221762 0.000000 0.000000 0.000000 16.619258 -2.497118 -1.929402 62.621451 6.072943 -2.562975 8.413704 22.092144 2.405133 0.000000 0.000000 0.000000 
-0.001237 0.939323 -0.000224 3.200919 1.300226 7.023403 3.890838 -0.392839 -4.739756 1.195778 -0.134184 0.195908 8.245993 18.320781 22.002733 0.000000 0.000000 0.000000 -7.294136 0.524993 -7.213001 -6.555143 0.544730 -1.474588 5.900622 9.449330 7.783094 0.000000 0.000000 0.000000 6.214032 0.358746 -6.008156 -3.539424 1.636595 -3.233782 -8.784824 2.046345 3.325287 3.027355 -1.048413 -9.286049 0.000000 0.000000 0.000000 -20.785633 -5.316825 -0.422696 -49.614462 -6.557534 -2.754709 -5.849044 -14.893115 1.207068 0.000000 0.000000 0.000000 16.621175 -2.557410 -1.954854 62.412404 5.741728 -2.722065 8.496728 22.071776 2.416801 0.000000 0.000000 0.000000 
-0.001465 0.939200 -0.000370 3.267064 1.617294 7.071037 3.897076 -0.402039 -4.860880 1.158429 -0.129906 0.201828 8.072736 18.137217 21.885149 0.000000 0.000000 0.000000 -7.416835 0.514400 -7.172892 -6.401254 0.532472 -1.486491 5.744850 9.197544 7.698377 0.000000 0.000000 0.000000 6.086147 0.343664 -5.907812 -3.456100 1.602537 -3.167543 -8.902902 2.006721 3.177185 3.101995 -1.101594 -9.166843 0.000000 0.000000 0.000000 -20.724979 -5.277390 -0.493823 -49.417681 -6.629018 -2.685595 -5.992216 -14.972788 1.226840 0.000000 0.000000 0.000000 16.686479 -2.654833 -1.978260 62.371356 5.559921 -2.794819 8.341585 22.285723 2.422968 0.000000 0.000000 0.000000 
